<svg xmlns="http://www.w3.org/2000/svg" viewBox="0 0 32 32" role="img" aria-label="pokercount poker chip">
  <!-- chip rim -->
  <circle cx="16" cy="16" r="15.3" fill="#493970"/>
  <!-- cream edge spots around the rim -->
  <g fill="#eef2f6">
    <g>
      <rect x="13.9" y="0.7" width="4.2" height="5.2" rx="2"/>
    </g>
    <g transform="rotate(60 16 16)"><rect x="13.9" y="0.7" width="4.2" height="5.2" rx="2"/></g>
    <g transform="rotate(120 16 16)"><rect x="13.9" y="0.7" width="4.2" height="5.2" rx="2"/></g>
    <g transform="rotate(180 16 16)"><rect x="13.9" y="0.7" width="4.2" height="5.2" rx="2"/></g>
    <g transform="rotate(240 16 16)"><rect x="13.9" y="0.7" width="4.2" height="5.2" rx="2"/></g>
    <g transform="rotate(300 16 16)"><rect x="13.9" y="0.7" width="4.2" height="5.2" rx="2"/></g>
  </g>
  <!-- chip face -->
  <circle cx="16" cy="16" r="12.1" fill="#6a52a3"/>
  <!-- decorative gold ring -->
  <circle cx="16" cy="16" r="9" fill="none" stroke="#f3cd6b" stroke-width="0.9" stroke-dasharray="0.2 2.55" stroke-linecap="round"/>
  <circle cx="16" cy="16" r="7.2" fill="#0d0a1a"/>
  <!-- spade -->
  <path transform="translate(16 16) scale(0.6) translate(-12 -11.6)"
        fill="#f3cd6b"
        d="M12 2C12 2 4.5 8.4 4.5 13.4C4.5 15.9 6.2 17.5 8.2 17.5C9.4 17.5 10.4 16.9 11 16.1C10.8 18.3 10 19.9 8.6 20.9L15.4 20.9C14 19.9 13.2 18.3 13 16.1C13.6 16.9 14.6 17.5 15.8 17.5C17.8 17.5 19.5 15.9 19.5 13.4C19.5 8.4 12 2 12 2Z"/>
</svg>
